<svg xmlns="http://www.w3.org/2000/svg"  viewBox="0 0 64 64" width="64px" height="64px" baseProfile="basic"><ellipse cx="32" cy="61" opacity=".3" rx="21" ry="3"/><path fill="#a8172d" d="M59,36.129H5v7.052l0.004,0.001v0.68c-0.012,1.004,0.522,2.014,1.608,2.485l19.409,8.414	c3.813,1.653,8.144,1.653,11.956,0l19.409-8.414c1.086-0.472,1.62-1.481,1.608-2.485v-0.68L59,43.181V36.129z"/><path d="M55.397,41.759l-19.409,8.415c-2.268,0.983-3.424,3.445-2.856,5.769	c1.654-0.125,3.293-0.509,4.845-1.182l19.409-8.414c1.086-0.472,1.62-1.481,1.608-2.485v-0.68L59,43.181v-1.549	C57.864,41.243,56.589,41.243,55.397,41.759z" opacity=".15"/><path fill="#fd3c4f" d="M57.396,33.51l-19.415-8.292c-3.815-1.629-8.146-1.629-11.96,0L6.605,33.51	c-1.102,0.47-1.631,1.486-1.604,2.489c-0.027,1.003,0.502,2.018,1.604,2.488l19.415,8.292c3.815,1.629,8.146,1.629,11.96,0	l19.415-8.292c1.102-0.47,1.631-1.486,1.604-2.488C59.026,34.996,58.497,33.981,57.396,33.51z"/><path fill="#fd3c4f" d="M57.396,33.51l-19.415-8.292c-3.815-1.629-8.146-1.629-11.96,0L6.605,33.51	c-1.102,0.47-1.631,1.486-1.604,2.489c-0.027,1.003,0.502,2.018,1.604,2.488l19.415,8.292c3.815,1.629,8.146,1.629,11.96,0	l19.415-8.292c1.102-0.47,1.631-1.486,1.604-2.488C59.026,34.996,58.497,33.981,57.396,33.51z"/><rect width="6" height="18.155" x="29" y="17.539" fill="#68e5fd"/><circle cx="32" cy="14" r="8" fill="#fd3c4f"/><path fill="none" stroke="#fff" stroke-linecap="round" stroke-linejoin="round" stroke-miterlimit="10" stroke-width="3" d="M27.5,14c0-2.481,2.019-4.5,4.5-4.5"/><path fill="#fff" d="M32,6c-4.418,0-8,3.582-8,8c0,1.771,0.583,3.402,1.557,4.728	C27.551,18.07,29,16.214,29,14c0-1.654,1.346-3,3-3c2.214,0,4.071-1.449,4.728-3.443C35.402,6.583,33.771,6,32,6z" opacity=".3"/><ellipse cx="14.5" cy="35.5" fill="#ffa1ac" rx="3.5" ry="1.5"/><ellipse cx="32" cy="35.714" fill="#68e5fd" rx="3" ry="1.286"/></svg>